<svg width="97" height="126" viewBox="0 0 97 126" fill="none" xmlns="http://www.w3.org/2000/svg">
<path d="M58.88 48.44H33.792V25.912H82.176V78.776C82.176 86.712 80.5973 93.5813 77.44 99.384C74.2827 105.101 69.9307 109.453 64.384 112.44C58.9227 115.427 52.8213 116.92 46.08 116.92C39.5947 116.92 33.5787 115.299 28.032 112.056C22.5707 108.813 18.2187 104.461 14.976 99C11.7333 93.4533 10.112 87.4373 10.112 80.952H33.408C33.408 84.8773 34.5173 88.1627 36.736 90.808C39.04 93.4533 42.112 94.776 45.952 94.776C50.048 94.776 53.2053 93.496 55.424 90.936C57.728 88.2907 58.88 84.4507 58.88 79.416V48.44Z" fill="black"/>
</svg>
